<?xml version="1.0" encoding="UTF-8"?>
<svg xmlns="http://www.w3.org/2000/svg" viewBox="0 0 842 595">
  <defs>
    <style>
      .cls-1 {
        fill: #c9d1d9;
      }

      .cls-2 {
        stroke-width: .66px;
      }

      .cls-2, .cls-3 {
        fill: none;
        stroke: #c9d1d9;
        stroke-linecap: round;
        stroke-linejoin: round;
      }

      .cls-3 {
        stroke-width: .42px;
      }
    </style>
  </defs>
  <g id="Ebene_1" data-name="Ebene 1">
    <polyline class="cls-2" points="98.04 508.38 98.16 509.94 98.46 511.5 99 513 99.72 514.44 100.56 515.76 101.64 516.9 102.84 517.98 104.1 518.88 105.54 519.54 107.04 520.08 108.6 520.38 110.22 520.5"/>
    <line class="cls-2" x1="98.04" y1="508.38" x2="98.04" y2="81.48"/>
    <polyline class="cls-2" points="110.22 69.36 108.6 69.48 107.04 69.78 105.54 70.32 104.1 70.98 102.84 71.88 101.64 72.9 100.56 74.1 99.72 75.42 99 76.86 98.46 78.36 98.16 79.92 98.04 81.48"/>
    <line class="cls-2" x1="110.22" y1="69.36" x2="760.2" y2="69.36"/>
    <polyline class="cls-2" points="772.32 81.48 772.26 79.92 771.9 78.36 771.42 76.86 770.7 75.42 769.86 74.1 768.78 72.9 767.58 71.88 766.26 70.98 764.88 70.32 763.38 69.78 761.82 69.48 760.2 69.36"/>
    <line class="cls-2" x1="772.32" y1="81.48" x2="772.32" y2="508.38"/>
    <polyline class="cls-2" points="760.2 520.5 761.82 520.38 763.38 520.08 764.88 519.54 766.26 518.88 767.58 517.98 768.78 516.9 769.86 515.76 770.7 514.44 771.42 513 771.9 511.5 772.26 509.94 772.32 508.38"/>
    <line class="cls-2" x1="760.2" y1="520.5" x2="110.22" y2="520.5"/>
    <path class="cls-3" d="m114.12,81.48c0,2.15-1.75,3.9-3.9,3.9s-3.9-1.75-3.9-3.9,1.75-3.9,3.9-3.9,3.9,1.75,3.9,3.9Z"/>
    <path class="cls-3" d="m439.08,81.48c0,2.15-1.75,3.9-3.9,3.9s-3.9-1.75-3.9-3.9,1.75-3.9,3.9-3.9,3.9,1.75,3.9,3.9Z"/>
    <path class="cls-3" d="m764.1,81.48c0,2.15-1.75,3.9-3.9,3.9s-3.9-1.75-3.9-3.9,1.75-3.9,3.9-3.9,3.9,1.75,3.9,3.9Z"/>
    <circle class="cls-3" cx="272.7" cy="297.36" r="3.9"/>
    <path class="cls-3" d="m601.62,297.36c0,2.15-1.75,3.9-3.9,3.9s-3.9-1.75-3.9-3.9,1.75-3.9,3.9-3.9,3.9,1.75,3.9,3.9Z"/>
    <path class="cls-3" d="m764.1,508.38c0,2.15-1.75,3.9-3.9,3.9s-3.9-1.75-3.9-3.9,1.75-3.9,3.9-3.9,3.9,1.75,3.9,3.9Z"/>
    <circle class="cls-3" cx="435.18" cy="508.38" r="3.9"/>
    <circle class="cls-3" cx="110.22" cy="508.38" r="3.9"/>
    <line class="cls-3" x1="432.78" y1="294.9" x2="437.64" y2="294.9"/>
    <line class="cls-3" x1="435.18" y1="292.5" x2="435.18" y2="297.36"/>
    <line class="cls-3" x1="420.66" y1="294.9" x2="435.18" y2="294.9"/>
    <line class="cls-3" x1="435.18" y1="294.9" x2="449.76" y2="294.9"/>
    <line class="cls-3" x1="435.18" y1="309.48" x2="435.18" y2="294.9"/>
    <line class="cls-3" x1="435.18" y1="294.9" x2="435.18" y2="280.38"/>
    <line class="cls-3" x1="408.54" y1="294.9" x2="85.92" y2="294.9"/>
    <line class="cls-3" x1="784.44" y1="294.9" x2="461.88" y2="294.9"/>
    <line class="cls-3" x1="272.7" y1="302.22" x2="272.7" y2="287.64"/>
    <line class="cls-3" x1="597.72" y1="302.22" x2="597.72" y2="287.64"/>
    <line class="cls-3" x1="597.72" y1="522.9" x2="597.72" y2="314.34"/>
    <line class="cls-3" x1="597.72" y1="66.96" x2="597.72" y2="275.52"/>
    <line class="cls-2" x1="73.8" y1="294.9" x2="52.44" y2="294.9"/>
    <line class="cls-2" x1="73.8" y1="69.36" x2="52.44" y2="69.36"/>
    <line class="cls-2" x1="61.68" y1="294.6" x2="61.68" y2="69.66"/>
    <line class="cls-2" x1="61.68" y1="294.6" x2="60.18" y2="282.6"/>
    <line class="cls-2" x1="60.18" y1="282.6" x2="63.18" y2="282.6"/>
    <line class="cls-2" x1="63.18" y1="282.6" x2="61.68" y2="294.6"/>
    <line class="cls-2" x1="61.68" y1="294.6" x2="61.08" y2="282.6"/>
    <line class="cls-2" x1="62.28" y1="282.6" x2="61.68" y2="294.6"/>
    <line class="cls-2" x1="61.68" y1="294.6" x2="60.48" y2="282.6"/>
    <line class="cls-2" x1="62.94" y1="282.6" x2="61.68" y2="294.6"/>
    <line class="cls-2" x1="61.68" y1="69.66" x2="60.18" y2="81.72"/>
    <line class="cls-2" x1="60.18" y1="81.72" x2="63.18" y2="81.72"/>
    <line class="cls-2" x1="63.18" y1="81.72" x2="61.68" y2="69.66"/>
    <line class="cls-2" x1="61.68" y1="69.66" x2="61.08" y2="81.72"/>
    <line class="cls-2" x1="62.28" y1="81.72" x2="61.68" y2="69.66"/>
    <line class="cls-2" x1="61.68" y1="69.66" x2="60.48" y2="81.72"/>
    <line class="cls-2" x1="62.94" y1="81.72" x2="61.68" y2="69.66"/>
    <line class="cls-2" x1="73.8" y1="294.9" x2="52.44" y2="294.9"/>
    <line class="cls-2" x1="73.8" y1="520.5" x2="52.44" y2="520.5"/>
    <line class="cls-2" x1="61.68" y1="295.26" x2="61.68" y2="520.2"/>
    <line class="cls-2" x1="61.68" y1="295.26" x2="60.18" y2="307.26"/>
    <line class="cls-2" x1="60.18" y1="307.26" x2="63.18" y2="307.26"/>
    <line class="cls-2" x1="63.18" y1="307.26" x2="61.68" y2="295.26"/>
    <line class="cls-2" x1="61.68" y1="295.26" x2="61.08" y2="307.26"/>
    <line class="cls-2" x1="62.28" y1="307.26" x2="61.68" y2="295.26"/>
    <line class="cls-2" x1="61.68" y1="295.26" x2="60.48" y2="307.26"/>
    <line class="cls-2" x1="62.94" y1="307.26" x2="61.68" y2="295.26"/>
    <line class="cls-2" x1="61.68" y1="520.2" x2="60.18" y2="508.14"/>
    <line class="cls-2" x1="60.18" y1="508.14" x2="63.18" y2="508.14"/>
    <line class="cls-2" x1="63.18" y1="508.14" x2="61.68" y2="520.2"/>
    <line class="cls-2" x1="61.68" y1="520.2" x2="61.08" y2="508.14"/>
    <line class="cls-2" x1="62.28" y1="508.14" x2="61.68" y2="520.2"/>
    <line class="cls-2" x1="61.68" y1="520.2" x2="60.48" y2="508.14"/>
    <line class="cls-2" x1="62.94" y1="508.14" x2="61.68" y2="520.2"/>
    <line class="cls-2" x1="435.18" y1="532.62" x2="435.18" y2="558.84"/>
    <line class="cls-2" x1="760.2" y1="532.62" x2="760.2" y2="558.84"/>
    <line class="cls-2" x1="435.54" y1="549.6" x2="759.9" y2="549.6"/>
    <line class="cls-2" x1="435.54" y1="549.6" x2="447.54" y2="548.1"/>
    <line class="cls-2" x1="447.54" y1="548.1" x2="447.54" y2="551.1"/>
    <line class="cls-2" x1="447.54" y1="551.1" x2="435.54" y2="549.6"/>
    <line class="cls-2" x1="435.54" y1="549.6" x2="447.54" y2="548.94"/>
    <line class="cls-2" x1="447.54" y1="550.2" x2="435.54" y2="549.6"/>
    <line class="cls-2" x1="435.54" y1="549.6" x2="447.54" y2="548.34"/>
    <line class="cls-2" x1="447.54" y1="550.8" x2="435.54" y2="549.6"/>
    <line class="cls-2" x1="759.9" y1="549.6" x2="747.9" y2="548.1"/>
    <line class="cls-2" x1="747.9" y1="548.1" x2="747.9" y2="551.1"/>
    <line class="cls-2" x1="747.9" y1="551.1" x2="759.9" y2="549.6"/>
    <line class="cls-2" x1="759.9" y1="549.6" x2="747.9" y2="548.94"/>
    <line class="cls-2" x1="747.9" y1="550.2" x2="759.9" y2="549.6"/>
    <line class="cls-2" x1="759.9" y1="549.6" x2="747.9" y2="548.34"/>
    <line class="cls-2" x1="747.9" y1="550.8" x2="759.9" y2="549.6"/>
    <line class="cls-2" x1="110.22" y1="64.5" x2="110.22" y2="43.14"/>
    <line class="cls-2" x1="272.7" y1="64.5" x2="272.7" y2="43.14"/>
    <line class="cls-2" x1="110.52" y1="52.38" x2="272.4" y2="52.38"/>
    <line class="cls-2" x1="110.52" y1="52.38" x2="122.52" y2="50.88"/>
    <line class="cls-2" x1="122.52" y1="50.88" x2="122.52" y2="53.94"/>
    <line class="cls-2" x1="122.52" y1="53.94" x2="110.52" y2="52.38"/>
    <line class="cls-2" x1="110.52" y1="52.38" x2="122.52" y2="51.78"/>
    <line class="cls-2" x1="122.52" y1="53.04" x2="110.52" y2="52.38"/>
    <line class="cls-2" x1="110.52" y1="52.38" x2="122.52" y2="51.18"/>
    <line class="cls-2" x1="122.52" y1="53.64" x2="110.52" y2="52.38"/>
    <line class="cls-2" x1="272.4" y1="52.38" x2="260.4" y2="50.88"/>
    <line class="cls-2" x1="260.4" y1="50.88" x2="260.4" y2="53.94"/>
    <line class="cls-2" x1="260.4" y1="53.94" x2="272.4" y2="52.38"/>
    <line class="cls-2" x1="272.4" y1="52.38" x2="260.4" y2="51.78"/>
    <line class="cls-2" x1="260.4" y1="53.04" x2="272.4" y2="52.38"/>
    <line class="cls-2" x1="272.4" y1="52.38" x2="260.4" y2="51.18"/>
    <line class="cls-2" x1="260.4" y1="53.64" x2="272.4" y2="52.38"/>
    <line class="cls-3" x1="435.18" y1="66.96" x2="435.18" y2="268.26"/>
    <line class="cls-3" x1="272.7" y1="66.96" x2="272.7" y2="275.52"/>
    <line class="cls-3" x1="272.7" y1="314.34" x2="272.7" y2="522.9"/>
    <line class="cls-3" x1="435.18" y1="321.6" x2="435.18" y2="522.9"/>
    <line class="cls-2" x1="93.24" y1="69.36" x2="35.22" y2="69.36"/>
    <line class="cls-2" x1="93.24" y1="520.5" x2="35.22" y2="520.5"/>
    <line class="cls-2" x1="44.7" y1="69.72" x2="44.7" y2="520.14"/>
    <line class="cls-2" x1="44.7" y1="69.72" x2="43.14" y2="81.96"/>
    <line class="cls-2" x1="43.14" y1="81.96" x2="46.26" y2="81.96"/>
    <line class="cls-2" x1="46.26" y1="81.96" x2="44.7" y2="69.72"/>
    <line class="cls-2" x1="44.7" y1="69.72" x2="44.1" y2="81.96"/>
    <line class="cls-2" x1="45.36" y1="81.96" x2="44.7" y2="69.72"/>
    <line class="cls-2" x1="44.7" y1="69.72" x2="43.44" y2="81.96"/>
    <line class="cls-2" x1="45.96" y1="81.96" x2="44.7" y2="69.72"/>
    <line class="cls-2" x1="44.7" y1="520.14" x2="43.14" y2="507.84"/>
    <line class="cls-2" x1="43.14" y1="507.84" x2="46.26" y2="507.84"/>
    <line class="cls-2" x1="46.26" y1="507.84" x2="44.7" y2="520.14"/>
    <line class="cls-2" x1="44.7" y1="520.14" x2="44.1" y2="507.84"/>
    <line class="cls-2" x1="45.36" y1="507.84" x2="44.7" y2="520.14"/>
    <line class="cls-2" x1="44.7" y1="520.14" x2="43.44" y2="507.84"/>
    <line class="cls-2" x1="45.96" y1="507.84" x2="44.7" y2="520.14"/>
    <line class="cls-2" x1="98.04" y1="64.5" x2="98.04" y2="18.9"/>
    <line class="cls-2" x1="772.32" y1="64.5" x2="772.32" y2="18.9"/>
    <line class="cls-2" x1="98.4" y1="28.14" x2="772.02" y2="28.14"/>
    <line class="cls-2" x1="98.4" y1="28.14" x2="110.4" y2="26.64"/>
    <line class="cls-2" x1="110.4" y1="26.64" x2="110.4" y2="29.64"/>
    <line class="cls-2" x1="110.4" y1="29.64" x2="98.4" y2="28.14"/>
    <line class="cls-2" x1="98.4" y1="28.14" x2="110.4" y2="27.54"/>
    <line class="cls-2" x1="110.4" y1="28.74" x2="98.4" y2="28.14"/>
    <line class="cls-2" x1="98.4" y1="28.14" x2="110.4" y2="26.94"/>
    <line class="cls-2" x1="110.4" y1="29.4" x2="98.4" y2="28.14"/>
    <line class="cls-2" x1="772.02" y1="28.14" x2="760.02" y2="26.64"/>
    <line class="cls-2" x1="760.02" y1="26.64" x2="760.02" y2="29.64"/>
    <line class="cls-2" x1="760.02" y1="29.64" x2="772.02" y2="28.14"/>
    <line class="cls-2" x1="772.02" y1="28.14" x2="760.02" y2="27.54"/>
    <line class="cls-2" x1="760.02" y1="28.74" x2="772.02" y2="28.14"/>
    <line class="cls-2" x1="772.02" y1="28.14" x2="760.02" y2="26.94"/>
    <line class="cls-2" x1="760.02" y1="29.4" x2="772.02" y2="28.14"/>
    <line class="cls-2" x1="769.92" y1="508.38" x2="803.4" y2="508.38"/>
    <line class="cls-2" x1="769.92" y1="520.5" x2="803.4" y2="520.5"/>
    <line class="cls-2" x1="794.16" y1="520.8" x2="794.16" y2="545.1"/>
    <line class="cls-2" x1="794.16" y1="508.02" x2="794.16" y2="470.34"/>
    <line class="cls-2" x1="794.16" y1="508.02" x2="792.66" y2="496.02"/>
    <line class="cls-2" x1="792.66" y1="496.02" x2="795.66" y2="496.02"/>
    <line class="cls-2" x1="795.66" y1="496.02" x2="794.16" y2="508.02"/>
    <line class="cls-2" x1="794.16" y1="508.02" x2="793.56" y2="496.02"/>
    <line class="cls-2" x1="794.76" y1="496.02" x2="794.16" y2="508.02"/>
    <line class="cls-2" x1="794.16" y1="508.02" x2="792.96" y2="496.02"/>
    <line class="cls-2" x1="795.42" y1="496.02" x2="794.16" y2="508.02"/>
    <line class="cls-2" x1="794.16" y1="520.8" x2="792.66" y2="532.8"/>
    <line class="cls-2" x1="792.66" y1="532.8" x2="795.66" y2="532.8"/>
    <line class="cls-2" x1="795.66" y1="532.8" x2="794.16" y2="520.8"/>
    <line class="cls-2" x1="794.16" y1="520.8" x2="793.56" y2="532.8"/>
    <line class="cls-2" x1="794.76" y1="532.8" x2="794.16" y2="520.8"/>
    <line class="cls-2" x1="794.16" y1="520.8" x2="792.96" y2="532.8"/>
    <line class="cls-2" x1="795.42" y1="532.8" x2="794.16" y2="520.8"/>
    <line class="cls-2" x1="772.32" y1="518.04" x2="772.32" y2="568.5"/>
    <line class="cls-2" x1="760.2" y1="518.04" x2="760.2" y2="568.5"/>
    <line class="cls-2" x1="759.9" y1="559.26" x2="735.54" y2="559.26"/>
    <line class="cls-2" x1="772.62" y1="559.26" x2="810.36" y2="559.26"/>
    <line class="cls-2" x1="772.62" y1="559.26" x2="784.68" y2="557.76"/>
    <line class="cls-2" x1="784.68" y1="557.76" x2="784.68" y2="560.82"/>
    <line class="cls-2" x1="784.68" y1="560.82" x2="772.62" y2="559.26"/>
    <line class="cls-2" x1="772.62" y1="559.26" x2="784.68" y2="558.66"/>
    <line class="cls-2" x1="784.68" y1="559.92" x2="772.62" y2="559.26"/>
    <line class="cls-2" x1="772.62" y1="559.26" x2="784.68" y2="558.06"/>
    <line class="cls-2" x1="784.68" y1="560.52" x2="772.62" y2="559.26"/>
    <line class="cls-2" x1="759.9" y1="559.26" x2="747.9" y2="557.76"/>
    <line class="cls-2" x1="747.9" y1="557.76" x2="747.9" y2="560.82"/>
    <line class="cls-2" x1="747.9" y1="560.82" x2="759.9" y2="559.26"/>
    <line class="cls-2" x1="759.9" y1="559.26" x2="747.9" y2="558.66"/>
    <line class="cls-2" x1="747.9" y1="559.92" x2="759.9" y2="559.26"/>
    <line class="cls-2" x1="759.9" y1="559.26" x2="747.9" y2="558.06"/>
    <line class="cls-2" x1="747.9" y1="560.52" x2="759.9" y2="559.26"/>
    <line class="cls-2" x1="110.22" y1="525.36" x2="110.22" y2="558.84"/>
    <line class="cls-2" x1="435.18" y1="525.36" x2="435.18" y2="558.84"/>
    <line class="cls-2" x1="110.52" y1="549.6" x2="434.88" y2="549.6"/>
    <line class="cls-2" x1="110.52" y1="549.6" x2="122.52" y2="548.1"/>
    <line class="cls-2" x1="122.52" y1="548.1" x2="122.52" y2="551.1"/>
    <line class="cls-2" x1="122.52" y1="551.1" x2="110.52" y2="549.6"/>
    <line class="cls-2" x1="110.52" y1="549.6" x2="122.52" y2="548.94"/>
    <line class="cls-2" x1="122.52" y1="550.2" x2="110.52" y2="549.6"/>
    <line class="cls-2" x1="110.52" y1="549.6" x2="122.52" y2="548.34"/>
    <line class="cls-2" x1="122.52" y1="550.8" x2="110.52" y2="549.6"/>
    <line class="cls-2" x1="434.88" y1="549.6" x2="422.88" y2="548.1"/>
    <line class="cls-2" x1="422.88" y1="548.1" x2="422.88" y2="551.1"/>
    <line class="cls-2" x1="422.88" y1="551.1" x2="434.88" y2="549.6"/>
    <line class="cls-2" x1="434.88" y1="549.6" x2="422.88" y2="548.94"/>
    <line class="cls-2" x1="422.88" y1="550.2" x2="434.88" y2="549.6"/>
    <line class="cls-2" x1="434.88" y1="549.6" x2="422.88" y2="548.34"/>
    <line class="cls-2" x1="422.88" y1="550.8" x2="434.88" y2="549.6"/>
    <line class="cls-2" x1="273" y1="297.36" x2="597.42" y2="297.36"/>
    <line class="cls-2" x1="597.42" y1="297.36" x2="585.36" y2="295.86"/>
    <line class="cls-2" x1="585.36" y1="295.86" x2="585.36" y2="298.86"/>
    <line class="cls-2" x1="585.36" y1="298.86" x2="597.42" y2="297.36"/>
    <line class="cls-2" x1="597.42" y1="297.36" x2="585.36" y2="296.76"/>
    <line class="cls-2" x1="585.36" y1="297.96" x2="597.42" y2="297.36"/>
    <line class="cls-2" x1="597.42" y1="297.36" x2="585.36" y2="296.1"/>
    <line class="cls-2" x1="585.36" y1="298.56" x2="597.42" y2="297.36"/>
    <line class="cls-2" x1="272.7" y1="298.86" x2="272.7" y2="295.86"/>
    <line class="cls-2" x1="271.2" y1="297.36" x2="274.2" y2="297.36"/>
    <line class="cls-2" x1="267.84" y1="297.36" x2="253.74" y2="297.36"/>
    <line class="cls-2" x1="267.84" y1="69.36" x2="253.74" y2="69.36"/>
    <line class="cls-2" x1="262.98" y1="297.06" x2="262.98" y2="69.66"/>
    <line class="cls-2" x1="262.98" y1="297.06" x2="261.48" y2="285.06"/>
    <line class="cls-2" x1="261.48" y1="285.06" x2="264.48" y2="285.06"/>
    <line class="cls-2" x1="264.48" y1="285.06" x2="262.98" y2="297.06"/>
    <line class="cls-2" x1="262.98" y1="297.06" x2="262.38" y2="285.06"/>
    <line class="cls-2" x1="263.64" y1="285.06" x2="262.98" y2="297.06"/>
    <line class="cls-2" x1="262.98" y1="297.06" x2="261.78" y2="285.06"/>
    <line class="cls-2" x1="264.24" y1="285.06" x2="262.98" y2="297.06"/>
    <line class="cls-2" x1="262.98" y1="69.66" x2="261.48" y2="81.72"/>
    <line class="cls-2" x1="261.48" y1="81.72" x2="264.48" y2="81.72"/>
    <line class="cls-2" x1="264.48" y1="81.72" x2="262.98" y2="69.66"/>
    <line class="cls-2" x1="262.98" y1="69.66" x2="262.38" y2="81.72"/>
    <line class="cls-2" x1="263.64" y1="81.72" x2="262.98" y2="69.66"/>
    <line class="cls-2" x1="262.98" y1="69.66" x2="261.78" y2="81.72"/>
    <line class="cls-2" x1="264.24" y1="81.72" x2="262.98" y2="69.66"/>
    <g>
      <line class="cls-2" x1="760.2" y1="81.48" x2="786.84" y2="54.84"/>
      <line class="cls-2" x1="767.84" y1="72.15" x2="769.75" y2="74.06"/>
      <line class="cls-2" x1="769.75" y1="74.06" x2="760.2" y2="81.48"/>
      <line class="cls-2" x1="760.2" y1="81.48" x2="768.26" y2="72.57"/>
      <line class="cls-2" x1="769.11" y1="73.42" x2="760.2" y2="81.48"/>
      <line class="cls-2" x1="760.2" y1="81.48" x2="767.84" y2="72.15"/>
      <line class="cls-2" x1="769.58" y1="73.89" x2="760.2" y2="81.48"/>
    </g>
    <line class="cls-2" x1="786.84" y1="54.84" x2="798.03" y2="54.84"/>
  </g>
  <g id="TEXT">
    <path class="cls-1" d="m54.1,192.05c1.54,0,2.72.28,3.55.84.83.56,1.24,1.36,1.24,2.4,0,.7-.15,1.26-.44,1.68-.29.42-.77.72-1.43.91l-.17-1.09c.75-.23,1.12-.73,1.12-1.51,0-.66-.31-1.17-.92-1.53-.61-.36-1.48-.55-2.61-.57.38.17.69.46.92.87.23.41.35.86.35,1.35,0,.81-.28,1.45-.83,1.93-.55.48-1.28.72-2.19.72s-1.67-.26-2.21-.79c-.54-.53-.8-1.26-.8-2.19,0-1,.37-1.75,1.11-2.26.74-.51,1.85-.77,3.32-.77Zm-1.11,1.25c-.72,0-1.3.17-1.74.5s-.66.77-.66,1.33.19.99.56,1.3c.38.32.88.48,1.52.48s1.17-.16,1.55-.48c.38-.32.57-.75.57-1.29,0-.33-.08-.64-.23-.92-.15-.28-.36-.51-.64-.67-.28-.16-.59-.24-.94-.24Z"/>
    <path class="cls-1" d="m56.28,184.76c.83,0,1.47.26,1.92.79.45.53.68,1.28.68,2.25,0,.91-.2,1.63-.61,2.17s-1.01.86-1.81.96l-.11-1.18c1.06-.15,1.59-.8,1.59-1.95,0-.58-.14-1.03-.43-1.36-.28-.33-.71-.49-1.27-.49-.49,0-.87.19-1.14.56s-.41.92-.41,1.62v.65h-.99v-.62c0-.63-.14-1.11-.41-1.46-.27-.35-.65-.52-1.13-.52s-.86.14-1.13.42c-.28.28-.42.7-.42,1.26,0,.5.13.91.39,1.22.26.31.62.49,1.09.54l-.09,1.15c-.73-.08-1.31-.39-1.72-.91-.41-.52-.62-1.2-.62-2.02,0-.9.21-1.6.63-2.09s1-.75,1.75-.75c.57,0,1.04.16,1.4.48.36.32.6.79.73,1.4h.03c.07-.67.3-1.19.67-1.56.38-.37.85-.56,1.42-.56Z"/>
    <path class="cls-1" d="m58.76,183h-1.39v-1.24h1.39v1.24Z"/>
    <path class="cls-1" d="m54.28,173.84c1.5,0,2.64.26,3.43.79.79.53,1.18,1.31,1.18,2.34s-.39,1.8-1.18,2.32-1.93.78-3.43.78-2.69-.25-3.46-.75c-.77-.5-1.15-1.3-1.15-2.38s.39-1.83,1.16-2.34c.78-.5,1.92-.75,3.45-.75Zm0,1.16c-1.29,0-2.23.15-2.81.45s-.87.79-.87,1.48.29,1.21.86,1.52,1.51.46,2.82.46,2.2-.16,2.79-.47c.59-.31.88-.81.88-1.48s-.3-1.17-.9-1.48c-.6-.31-1.53-.47-2.77-.47Z"/>
    <path class="cls-1" d="m54.28,166.6c1.5,0,2.64.26,3.43.79.79.53,1.18,1.31,1.18,2.34s-.39,1.8-1.18,2.32-1.93.78-3.43.78-2.69-.25-3.46-.75c-.77-.5-1.15-1.3-1.15-2.38s.39-1.83,1.16-2.34c.78-.5,1.92-.75,3.45-.75Zm0,1.16c-1.29,0-2.23.15-2.81.45s-.87.79-.87,1.48.29,1.21.86,1.52,1.51.46,2.82.46,2.2-.16,2.79-.47c.59-.31.88-.81.88-1.48s-.3-1.17-.9-1.48c-.6-.31-1.53-.47-2.77-.47Z"/>
    <path class="cls-1" d="m54.1,417.6c1.54,0,2.72.28,3.55.84.83.56,1.24,1.36,1.24,2.4,0,.7-.15,1.26-.44,1.68-.29.42-.77.72-1.43.91l-.17-1.09c.75-.23,1.12-.73,1.12-1.51,0-.66-.31-1.17-.92-1.53s-1.48-.55-2.61-.57c.38.17.69.46.92.87s.35.86.35,1.35c0,.8-.28,1.45-.83,1.93s-1.28.72-2.19.72-1.67-.26-2.21-.79c-.54-.53-.8-1.26-.8-2.19,0-1,.37-1.75,1.11-2.26s1.85-.77,3.32-.77Zm-1.11,1.25c-.72,0-1.3.17-1.74.5-.44.33-.66.77-.66,1.33s.19.99.56,1.3c.38.32.88.48,1.52.48s1.17-.16,1.55-.48c.38-.32.57-.75.57-1.29,0-.33-.08-.64-.23-.92-.15-.28-.36-.51-.64-.67s-.59-.24-.94-.24Z"/>
    <path class="cls-1" d="m56.28,410.31c.83,0,1.47.26,1.92.79.45.53.68,1.28.68,2.25,0,.91-.2,1.63-.61,2.17s-1.01.86-1.81.96l-.11-1.18c1.06-.15,1.59-.8,1.59-1.95,0-.58-.14-1.03-.43-1.36-.28-.33-.71-.49-1.27-.49-.49,0-.87.19-1.14.56-.27.38-.41.92-.41,1.62v.65h-.99v-.62c0-.63-.14-1.11-.41-1.46s-.65-.52-1.13-.52-.86.14-1.13.42c-.28.28-.42.7-.42,1.26,0,.5.13.91.39,1.22.26.31.62.49,1.09.54l-.09,1.15c-.73-.08-1.31-.39-1.72-.91-.41-.52-.62-1.2-.62-2.02,0-.9.21-1.6.63-2.09s1-.75,1.75-.75c.57,0,1.04.16,1.4.48.36.32.6.79.73,1.4h.03c.07-.67.3-1.19.67-1.56.38-.37.85-.56,1.42-.56Z"/>
    <path class="cls-1" d="m58.76,408.55h-1.39v-1.24h1.39v1.24Z"/>
    <path class="cls-1" d="m54.28,399.39c1.5,0,2.64.26,3.43.79.79.53,1.18,1.31,1.18,2.34s-.39,1.8-1.18,2.32c-.78.52-1.93.78-3.43.78s-2.69-.25-3.46-.75c-.77-.5-1.15-1.3-1.15-2.38s.39-1.83,1.16-2.34c.78-.5,1.92-.75,3.45-.75Zm0,1.16c-1.29,0-2.23.15-2.81.45s-.87.79-.87,1.48.29,1.21.86,1.52c.57.31,1.51.46,2.82.46s2.2-.16,2.79-.47c.59-.31.88-.81.88-1.48s-.3-1.17-.9-1.48c-.6-.31-1.53-.47-2.77-.47Z"/>
    <path class="cls-1" d="m54.28,392.15c1.5,0,2.64.26,3.43.79.79.53,1.18,1.31,1.18,2.34s-.39,1.8-1.18,2.32c-.78.52-1.93.78-3.43.78s-2.69-.25-3.46-.75c-.77-.5-1.15-1.3-1.15-2.38s.39-1.83,1.16-2.34c.78-.5,1.92-.75,3.45-.75Zm0,1.16c-1.29,0-2.23.15-2.81.45s-.87.79-.87,1.48.29,1.21.86,1.52c.57.31,1.51.46,2.82.46s2.2-.16,2.79-.47c.59-.31.88-.81.88-1.48s-.3-1.17-.9-1.48c-.6-.31-1.53-.47-2.77-.47Z"/>
    <path class="cls-1" d="m578.5,546.66v-.97h2.28v-6.89l-2.02,1.44v-1.08l2.12-1.46h1.06v7.99h2.18v.97h-5.61Z"/>
    <path class="cls-1" d="m591.42,544.19c0,.83-.26,1.47-.79,1.92-.53.45-1.28.68-2.25.68-.91,0-1.63-.2-2.17-.61s-.86-1.01-.96-1.82l1.18-.11c.15,1.06.8,1.59,1.95,1.59.58,0,1.03-.14,1.36-.43s.49-.71.49-1.26c0-.49-.19-.87-.56-1.14-.38-.27-.92-.41-1.62-.41h-.65v-.99h.62c.63,0,1.11-.14,1.46-.41s.52-.65.52-1.13-.14-.86-.42-1.13c-.28-.28-.7-.42-1.26-.42-.5,0-.91.13-1.22.39-.31.26-.49.62-.54,1.09l-1.15-.09c.08-.73.39-1.31.91-1.72s1.2-.62,2.02-.62c.9,0,1.6.21,2.09.63s.75,1,.75,1.75c0,.57-.16,1.04-.48,1.4-.32.36-.79.6-1.4.73v.03c.67.07,1.19.3,1.56.67.37.38.56.85.56,1.42Z"/>
    <path class="cls-1" d="m597.59,544.63v2.03h-1.08v-2.03h-4.22v-.89l4.1-6.04h1.2v6.03h1.26v.9h-1.26Zm-1.08-5.64s-.07.14-.18.34-.19.34-.25.42l-2.29,3.38-.34.47-.1.13h3.17v-4.74Z"/>
    <path class="cls-1" d="m600.42,546.66v-1.39h1.24v1.39h-1.24Z"/>
    <path class="cls-1" d="m609.58,542.18c0,1.5-.26,2.64-.79,3.43-.53.79-1.31,1.18-2.34,1.18s-1.8-.39-2.32-1.18c-.52-.78-.78-1.93-.78-3.43s.25-2.69.75-3.46c.5-.77,1.3-1.15,2.38-1.15s1.83.39,2.34,1.16c.5.78.75,1.92.75,3.45Zm-1.16,0c0-1.29-.15-2.23-.45-2.81s-.79-.87-1.48-.87-1.21.29-1.52.86c-.31.57-.46,1.51-.46,2.82s.16,2.2.47,2.79c.31.59.81.88,1.48.88s1.17-.3,1.48-.9.47-1.53.47-2.77Z"/>
    <path class="cls-1" d="m616.82,542.18c0,1.5-.26,2.64-.79,3.43-.53.79-1.31,1.18-2.34,1.18s-1.8-.39-2.32-1.18c-.52-.78-.78-1.93-.78-3.43s.25-2.69.75-3.46c.5-.77,1.3-1.15,2.38-1.15s1.83.39,2.34,1.16c.5.78.75,1.92.75,3.45Zm-1.16,0c0-1.29-.15-2.23-.45-2.81s-.79-.87-1.48-.87-1.21.29-1.52.86c-.31.57-.46,1.51-.46,2.82s.16,2.2.47,2.79c.31.59.81.88,1.48.88s1.17-.3,1.48-.9.47-1.53.47-2.77Z"/>
    <path class="cls-1" d="m181.6,46.54c0,.94-.26,1.69-.77,2.24-.51.55-1.22.82-2.12.82-1.01,0-1.78-.38-2.31-1.12-.53-.75-.8-1.84-.8-3.27,0-1.55.28-2.74.83-3.57.56-.83,1.35-1.25,2.37-1.25,1.35,0,2.2.61,2.56,1.82l-1.09.2c-.22-.73-.72-1.09-1.48-1.09-.65,0-1.16.3-1.52.91-.36.61-.54,1.49-.54,2.64.21-.39.5-.68.88-.88.38-.2.81-.3,1.3-.3.83,0,1.48.26,1.97.78s.73,1.21.73,2.09Zm-1.16.05c0-.65-.16-1.15-.48-1.5-.32-.35-.76-.53-1.33-.53-.53,0-.97.16-1.29.47s-.49.74-.49,1.29c0,.69.17,1.26.51,1.7.34.44.78.66,1.31.66s.98-.19,1.3-.56c.31-.37.47-.88.47-1.53Z"/>
    <path class="cls-1" d="m188.75,41.44c-.92,1.4-1.56,2.49-1.94,3.29-.38.79-.66,1.57-.85,2.35-.19.77-.28,1.57-.28,2.4h-1.2c0-1.14.24-2.35.73-3.61s1.3-2.72,2.43-4.37h-4.81v-.97h5.92v.93Z"/>
    <path class="cls-1" d="m190.6,49.47v-1.39h1.24v1.39h-1.24Z"/>
    <path class="cls-1" d="m199.76,44.99c0,1.5-.26,2.64-.79,3.43-.53.79-1.31,1.18-2.34,1.18s-1.8-.39-2.32-1.18-.78-1.93-.78-3.43.25-2.69.75-3.46c.5-.77,1.3-1.15,2.38-1.15s1.83.39,2.34,1.16c.5.78.75,1.92.75,3.45Zm-1.16,0c0-1.29-.15-2.23-.45-2.81s-.79-.87-1.48-.87-1.21.29-1.52.86-.46,1.51-.46,2.82.16,2.2.47,2.79c.31.59.81.88,1.48.88s1.17-.3,1.48-.9c.31-.6.47-1.53.47-2.77Z"/>
    <path class="cls-1" d="m207,44.99c0,1.5-.26,2.64-.79,3.43-.53.79-1.31,1.18-2.34,1.18s-1.8-.39-2.32-1.18-.78-1.93-.78-3.43.25-2.69.75-3.46c.5-.77,1.3-1.15,2.38-1.15s1.83.39,2.34,1.16c.5.78.75,1.92.75,3.45Zm-1.16,0c0-1.29-.15-2.23-.45-2.81s-.79-.87-1.48-.87-1.21.29-1.52.86-.46,1.51-.46,2.82.16,2.2.47,2.79c.31.59.81.88,1.48.88s1.17-.3,1.48-.9c.31-.6.47-1.53.47-2.77Z"/>
    <path class="cls-1" d="m41.77,314.13h-.97v-2.28h-6.89l1.44,2.02h-1.08l-1.46-2.12v-1.06h7.98v-2.18h.97v5.61Z"/>
    <path class="cls-1" d="m39.27,301.21c.83,0,1.47.26,1.93.79s.69,1.28.69,2.26-.23,1.71-.68,2.25c-.45.54-1.1.81-1.93.81-.58,0-1.08-.17-1.47-.5-.4-.33-.64-.76-.73-1.28h-.03c-.11.49-.36.87-.74,1.15s-.83.42-1.34.42c-.68,0-1.24-.26-1.66-.77-.42-.51-.64-1.2-.64-2.06s.21-1.58.62-2.09c.42-.51.98-.77,1.69-.77.51,0,.96.14,1.34.43.38.28.62.67.72,1.16h.03c.09-.57.34-1.02.73-1.33.39-.32.88-.48,1.47-.48Zm-4.22,1.41c-1.01,0-1.52.55-1.52,1.67,0,.54.13.95.38,1.23s.63.42,1.14.42.9-.15,1.17-.44.4-.7.4-1.23-.12-.95-.37-1.23c-.25-.28-.65-.42-1.2-.42Zm4.11-.22c-.56,0-.97.17-1.26.5-.28.33-.42.79-.42,1.39s.15,1.03.45,1.36c.3.33.72.49,1.25.49,1.23,0,1.85-.63,1.85-1.89,0-.62-.15-1.09-.45-1.39-.3-.31-.77-.46-1.43-.46Z"/>
    <path class="cls-1" d="m38.83,293.98c.94,0,1.69.26,2.24.77.55.51.82,1.22.82,2.12,0,1.01-.38,1.78-1.12,2.31s-1.84.8-3.27.8c-1.55,0-2.74-.28-3.57-.83-.83-.55-1.25-1.35-1.25-2.37,0-1.35.61-2.2,1.82-2.56l.2,1.09c-.73.22-1.09.72-1.09,1.48,0,.65.3,1.16.91,1.52.61.36,1.49.54,2.64.54-.39-.21-.68-.5-.88-.88-.2-.38-.3-.81-.3-1.3,0-.83.26-1.48.78-1.97s1.21-.73,2.09-.73Zm.05,1.16c-.65,0-1.15.16-1.5.48-.35.32-.53.76-.53,1.33,0,.53.16.97.47,1.29s.74.49,1.29.49c.69,0,1.26-.17,1.7-.51.44-.34.66-.78.66-1.31s-.19-.98-.56-1.3c-.37-.31-.88-.47-1.53-.47Z"/>
    <path class="cls-1" d="m41.77,292.22h-1.39v-1.24h1.39v1.24Z"/>
    <path class="cls-1" d="m37.28,283.06c1.5,0,2.64.26,3.43.79.79.53,1.18,1.31,1.18,2.34s-.39,1.8-1.18,2.32-1.93.78-3.43.78-2.69-.25-3.46-.75c-.77-.5-1.15-1.3-1.15-2.38s.39-1.83,1.16-2.34c.78-.5,1.92-.75,3.45-.75Zm0,1.16c-1.29,0-2.23.15-2.81.45s-.87.79-.87,1.48.29,1.21.86,1.52,1.51.46,2.82.46,2.2-.16,2.79-.47c.59-.31.88-.81.88-1.48s-.3-1.17-.9-1.48c-.6-.31-1.53-.47-2.77-.47Z"/>
    <path class="cls-1" d="m37.28,275.82c1.5,0,2.64.26,3.43.79.79.53,1.18,1.31,1.18,2.34s-.39,1.8-1.18,2.32-1.93.78-3.43.78-2.69-.25-3.46-.75c-.77-.5-1.15-1.3-1.15-2.38s.39-1.83,1.16-2.34c.78-.5,1.92-.75,3.45-.75Zm0,1.16c-1.29,0-2.23.15-2.81.45s-.87.79-.87,1.48.29,1.21.86,1.52,1.51.46,2.82.46,2.2-.16,2.79-.47c.59-.31.88-.81.88-1.48s-.3-1.17-.9-1.48c-.6-.31-1.53-.47-2.77-.47Z"/>
    <path class="cls-1" d="m415.66,25.22v-.81c.22-.5.48-.93.79-1.31s.64-.72.98-1.03c.34-.31.68-.59,1.02-.86.34-.26.64-.53.91-.79.27-.26.49-.54.66-.83.17-.29.25-.61.25-.98,0-.49-.14-.87-.43-1.14-.29-.27-.69-.41-1.2-.41s-.89.13-1.2.4c-.32.27-.5.64-.56,1.12l-1.17-.11c.08-.72.39-1.29.91-1.71.52-.42,1.2-.64,2.02-.64.9,0,1.6.21,2.08.64s.73,1.03.73,1.81c0,.35-.08.69-.24,1.04-.16.34-.39.69-.71,1.03-.31.34-.91.88-1.8,1.6-.49.4-.88.76-1.16,1.08-.29.32-.5.63-.62.92h4.67v.97h-5.93Z"/>
    <path class="cls-1" d="m428.83,17.19c-.92,1.4-1.56,2.49-1.94,3.29-.38.79-.66,1.57-.85,2.35-.19.77-.28,1.57-.28,2.4h-1.2c0-1.14.24-2.35.73-3.61.48-1.27,1.29-2.72,2.43-4.37h-4.81v-.97h5.92v.93Z"/>
    <path class="cls-1" d="m436.16,22.72c0,.83-.26,1.47-.79,1.93s-1.28.69-2.26.69-1.71-.23-2.25-.68c-.54-.45-.81-1.1-.81-1.93,0-.58.17-1.08.5-1.47.33-.4.76-.64,1.28-.73v-.03c-.49-.11-.87-.36-1.15-.74s-.42-.83-.42-1.34c0-.68.26-1.24.77-1.66.51-.42,1.2-.64,2.06-.64s1.58.21,2.09.62c.51.42.77.98.77,1.69,0,.51-.14.96-.43,1.34-.28.38-.67.62-1.16.72v.03c.57.09,1.02.34,1.33.73.32.39.48.88.48,1.47Zm-1.19-.11c0-.56-.17-.97-.5-1.26-.33-.28-.79-.42-1.39-.42s-1.03.15-1.36.45c-.33.3-.49.72-.49,1.25,0,1.23.63,1.85,1.89,1.85.62,0,1.09-.15,1.39-.45.31-.3.46-.77.46-1.43Zm-.22-4.11c0-1.01-.55-1.52-1.67-1.52-.54,0-.95.13-1.23.38s-.42.63-.42,1.14.15.9.44,1.17.7.4,1.23.4.95-.12,1.23-.37c.28-.25.42-.65.42-1.2Z"/>
    <path class="cls-1" d="m437.91,25.22v-1.39h1.24v1.39h-1.24Z"/>
    <path class="cls-1" d="m447.07,20.74c0,1.5-.26,2.64-.79,3.43-.53.79-1.31,1.18-2.34,1.18s-1.8-.39-2.32-1.18c-.52-.78-.78-1.93-.78-3.43s.25-2.69.75-3.46c.5-.77,1.3-1.15,2.38-1.15s1.83.39,2.34,1.16c.5.78.75,1.92.75,3.45Zm-1.16,0c0-1.29-.15-2.23-.45-2.81s-.79-.87-1.48-.87-1.21.29-1.52.86c-.31.57-.46,1.51-.46,2.82s.16,2.2.47,2.79c.31.59.81.88,1.48.88s1.17-.3,1.48-.9c.31-.6.47-1.53.47-2.77Z"/>
    <path class="cls-1" d="m454.31,20.74c0,1.5-.26,2.64-.79,3.43-.53.79-1.31,1.18-2.34,1.18s-1.8-.39-2.32-1.18c-.52-.78-.78-1.93-.78-3.43s.25-2.69.75-3.46c.5-.77,1.3-1.15,2.38-1.15s1.83.39,2.34,1.16c.5.78.75,1.92.75,3.45Zm-1.16,0c0-1.29-.15-2.23-.45-2.81s-.79-.87-1.48-.87-1.21.29-1.52.86c-.31.57-.46,1.51-.46,2.82s.16,2.2.47,2.79c.31.59.81.88,1.48.88s1.17-.3,1.48-.9c.31-.6.47-1.53.47-2.77Z"/>
    <path class="cls-1" d="m788.32,489.34c.95,0,1.69.28,2.23.84s.81,1.34.81,2.34c0,.83-.18,1.51-.55,2.02-.36.51-.89.84-1.58.97l-.13-1.16c.89-.24,1.33-.86,1.33-1.86,0-.61-.19-1.1-.56-1.44-.37-.35-.88-.52-1.53-.52-.56,0-1.02.17-1.37.52s-.52.82-.52,1.42c0,.31.05.6.15.86.1.27.26.53.5.8v1.12l-4.82-.3v-5.09h.97v4.05l2.84.17c-.38-.5-.57-1.11-.57-1.85,0-.88.26-1.58.78-2.11.52-.52,1.19-.79,2.02-.79Z"/>
    <path class="cls-1" d="m791.24,487.61h-1.39v-1.24h1.39v1.24Z"/>
    <path class="cls-1" d="m786.76,478.44c1.5,0,2.64.26,3.43.79.79.53,1.18,1.31,1.18,2.34s-.39,1.8-1.18,2.32c-.78.52-1.93.78-3.43.78s-2.69-.25-3.46-.75c-.77-.5-1.15-1.3-1.15-2.38s.39-1.83,1.16-2.34c.78-.5,1.92-.75,3.45-.75Zm0,1.16c-1.29,0-2.23.15-2.81.45s-.87.79-.87,1.48.29,1.21.86,1.52c.57.31,1.51.46,2.82.46s2.2-.16,2.79-.47c.59-.31.88-.81.88-1.48s-.3-1.17-.9-1.48-1.53-.47-2.77-.47Z"/>
    <path class="cls-1" d="m786.76,471.2c1.5,0,2.64.26,3.43.79.79.53,1.18,1.31,1.18,2.34s-.39,1.8-1.18,2.32c-.78.52-1.93.78-3.43.78s-2.69-.25-3.46-.75c-.77-.5-1.15-1.3-1.15-2.38s.39-1.83,1.16-2.34c.78-.5,1.92-.75,3.45-.75Zm0,1.16c-1.29,0-2.23.15-2.81.45s-.87.79-.87,1.48.29,1.21.86,1.52c.57.31,1.51.46,2.82.46s2.2-.16,2.79-.47c.59-.31.88-.81.88-1.48s-.3-1.17-.9-1.48-1.53-.47-2.77-.47Z"/>
    <path class="cls-1" d="m791.35,553.44c0,.95-.28,1.69-.84,2.23s-1.34.81-2.34.81c-.83,0-1.51-.18-2.02-.55-.51-.36-.84-.89-.97-1.58l1.16-.13c.24.89.86,1.33,1.86,1.33.61,0,1.1-.19,1.44-.56.35-.37.52-.88.52-1.53,0-.56-.17-1.02-.52-1.37s-.82-.52-1.42-.52c-.31,0-.6.05-.86.15-.27.1-.53.26-.8.5h-1.12l.3-4.82h5.09v.97h-4.05l-.17,2.84c.5-.38,1.11-.57,1.85-.57.88,0,1.58.26,2.11.78.52.52.79,1.19.79,2.02Z"/>
    <path class="cls-1" d="m793.09,556.36v-1.39h1.24v1.39h-1.24Z"/>
    <path class="cls-1" d="m802.25,551.88c0,1.5-.26,2.64-.79,3.43-.53.79-1.31,1.18-2.34,1.18s-1.8-.39-2.32-1.18c-.52-.78-.78-1.93-.78-3.43s.25-2.69.75-3.46c.5-.77,1.3-1.15,2.38-1.15s1.83.39,2.34,1.16c.5.78.75,1.92.75,3.45Zm-1.16,0c0-1.29-.15-2.23-.45-2.81s-.79-.87-1.48-.87-1.21.29-1.52.86c-.31.57-.46,1.51-.46,2.82s.16,2.2.47,2.79c.31.59.81.88,1.48.88s1.17-.3,1.48-.9.47-1.53.47-2.77Z"/>
    <path class="cls-1" d="m809.49,551.88c0,1.5-.26,2.64-.79,3.43-.53.79-1.31,1.18-2.34,1.18s-1.8-.39-2.32-1.18c-.52-.78-.78-1.93-.78-3.43s.25-2.69.75-3.46c.5-.77,1.3-1.15,2.38-1.15s1.83.39,2.34,1.16c.5.78.75,1.92.75,3.45Zm-1.16,0c0-1.29-.15-2.23-.45-2.81s-.79-.87-1.48-.87-1.21.29-1.52.86c-.31.57-.46,1.51-.46,2.82s.16,2.2.47,2.79c.31.59.81.88,1.48.88s1.17-.3,1.48-.9.47-1.53.47-2.77Z"/>
    <path class="cls-1" d="m253.49,546.66v-.97h2.28v-6.89l-2.02,1.44v-1.08l2.12-1.46h1.06v7.99h2.18v.97h-5.61Z"/>
    <path class="cls-1" d="m266.41,544.19c0,.83-.26,1.47-.79,1.92-.53.45-1.28.68-2.25.68-.91,0-1.63-.2-2.17-.61s-.86-1.01-.96-1.82l1.18-.11c.15,1.06.8,1.59,1.95,1.59.58,0,1.03-.14,1.36-.43s.49-.71.49-1.26c0-.49-.19-.87-.56-1.14s-.92-.41-1.62-.41h-.65v-.99h.62c.63,0,1.11-.14,1.46-.41.35-.27.52-.65.52-1.13s-.14-.86-.42-1.13c-.28-.28-.7-.42-1.26-.42-.5,0-.91.13-1.22.39-.31.26-.49.62-.54,1.09l-1.15-.09c.08-.73.39-1.31.91-1.72s1.2-.62,2.02-.62c.9,0,1.6.21,2.09.63s.75,1,.75,1.75c0,.57-.16,1.04-.48,1.4s-.79.6-1.4.73v.03c.67.07,1.19.3,1.56.67.37.38.56.85.56,1.42Z"/>
    <path class="cls-1" d="m272.58,544.63v2.03h-1.08v-2.03h-4.22v-.89l4.1-6.04h1.2v6.03h1.26v.9h-1.26Zm-1.08-5.64s-.07.14-.18.34c-.11.2-.19.34-.25.42l-2.29,3.38-.34.47-.1.13h3.17v-4.74Z"/>
    <path class="cls-1" d="m275.41,546.66v-1.39h1.24v1.39h-1.24Z"/>
    <path class="cls-1" d="m284.57,542.18c0,1.5-.26,2.64-.79,3.43-.53.79-1.31,1.18-2.34,1.18s-1.8-.39-2.32-1.18-.78-1.93-.78-3.43.25-2.69.75-3.46c.5-.77,1.3-1.15,2.38-1.15s1.83.39,2.34,1.16c.5.78.75,1.92.75,3.45Zm-1.16,0c0-1.29-.15-2.23-.45-2.81s-.79-.87-1.48-.87-1.21.29-1.52.86-.46,1.51-.46,2.82.16,2.2.47,2.79c.31.59.81.88,1.48.88s1.17-.3,1.48-.9.47-1.53.47-2.77Z"/>
    <path class="cls-1" d="m291.81,542.18c0,1.5-.26,2.64-.79,3.43-.53.79-1.31,1.18-2.34,1.18s-1.8-.39-2.32-1.18-.78-1.93-.78-3.43.25-2.69.75-3.46c.5-.77,1.3-1.15,2.38-1.15s1.83.39,2.34,1.16c.5.78.75,1.92.75,3.45Zm-1.16,0c0-1.29-.15-2.23-.45-2.81s-.79-.87-1.48-.87-1.21.29-1.52.86-.46,1.51-.46,2.82.16,2.2.47,2.79c.31.59.81.88,1.48.88s1.17-.3,1.48-.9.47-1.53.47-2.77Z"/>
    <path class="cls-1" d="m416,294.43v-.97h2.28v-6.89l-2.02,1.44v-1.08l2.12-1.46h1.06v7.98h2.18v.97h-5.61Z"/>
    <path class="cls-1" d="m428.91,291.95c0,.83-.26,1.47-.79,1.92-.53.45-1.28.68-2.25.68-.91,0-1.63-.2-2.17-.61s-.86-1.01-.96-1.81l1.18-.11c.15,1.06.8,1.59,1.95,1.59.58,0,1.03-.14,1.36-.43.33-.28.49-.71.49-1.27,0-.49-.19-.87-.56-1.14-.38-.27-.92-.41-1.62-.41h-.65v-.99h.62c.63,0,1.11-.14,1.46-.41s.52-.65.52-1.13-.14-.86-.42-1.13c-.28-.28-.7-.42-1.26-.42-.5,0-.91.13-1.22.39-.31.26-.49.62-.54,1.09l-1.15-.09c.08-.73.39-1.31.91-1.72.52-.41,1.2-.62,2.02-.62.9,0,1.6.21,2.09.63s.75,1,.75,1.75c0,.57-.16,1.04-.48,1.4-.32.36-.79.6-1.4.73v.03c.67.07,1.19.3,1.56.67.37.38.56.85.56,1.42Z"/>
    <path class="cls-1" d="m435.08,292.4v2.03h-1.08v-2.03h-4.22v-.89l4.1-6.04h1.2v6.03h1.26v.9h-1.26Zm-1.08-5.64s-.07.14-.18.34-.19.34-.25.42l-2.29,3.38-.34.47-.1.13h3.17v-4.74Z"/>
    <path class="cls-1" d="m437.91,294.43v-1.39h1.24v1.39h-1.24Z"/>
    <path class="cls-1" d="m447.07,289.95c0,1.5-.26,2.64-.79,3.43-.53.79-1.31,1.18-2.34,1.18s-1.8-.39-2.32-1.18c-.52-.78-.78-1.93-.78-3.43s.25-2.69.75-3.46c.5-.77,1.3-1.15,2.38-1.15s1.83.39,2.34,1.16c.5.78.75,1.92.75,3.45Zm-1.16,0c0-1.29-.15-2.23-.45-2.81s-.79-.87-1.48-.87-1.21.29-1.52.86c-.31.57-.46,1.51-.46,2.82s.16,2.2.47,2.79c.31.59.81.88,1.48.88s1.17-.3,1.48-.9c.31-.6.47-1.53.47-2.77Z"/>
    <path class="cls-1" d="m454.31,289.95c0,1.5-.26,2.64-.79,3.43-.53.79-1.31,1.18-2.34,1.18s-1.8-.39-2.32-1.18c-.52-.78-.78-1.93-.78-3.43s.25-2.69.75-3.46c.5-.77,1.3-1.15,2.38-1.15s1.83.39,2.34,1.16c.5.78.75,1.92.75,3.45Zm-1.16,0c0-1.29-.15-2.23-.45-2.81s-.79-.87-1.48-.87-1.21.29-1.52.86c-.31.57-.46,1.51-.46,2.82s.16,2.2.47,2.79c.31.59.81.88,1.48.88s1.17-.3,1.48-.9c.31-.6.47-1.53.47-2.77Z"/>
    <path class="cls-1" d="m255.41,193.26c1.54,0,2.72.28,3.55.84.83.56,1.24,1.36,1.24,2.4,0,.7-.15,1.26-.44,1.68-.29.42-.77.72-1.43.91l-.17-1.09c.75-.23,1.12-.73,1.12-1.51,0-.66-.31-1.17-.92-1.53-.61-.36-1.48-.55-2.61-.57.38.17.69.46.92.87.23.41.35.86.35,1.35,0,.81-.28,1.45-.83,1.93-.55.48-1.28.72-2.19.72s-1.67-.26-2.21-.79c-.54-.53-.8-1.26-.8-2.19,0-1,.37-1.75,1.11-2.26.74-.51,1.85-.77,3.32-.77Zm-1.11,1.25c-.72,0-1.3.17-1.74.5s-.66.77-.66,1.33.19.99.56,1.3c.38.32.88.48,1.52.48s1.17-.16,1.55-.48c.38-.32.57-.75.57-1.29,0-.33-.08-.64-.23-.92-.15-.28-.36-.51-.64-.67-.28-.16-.59-.24-.94-.24Z"/>
    <path class="cls-1" d="m258.04,187.04h2.03v1.08h-2.03v4.22h-.89l-6.04-4.1v-1.2h6.03v-1.26h.9v1.26Zm-5.64,1.08s.14.07.34.18c.2.11.34.19.42.25l3.38,2.29.47.34.13.1v-3.17h-4.74Z"/>
    <path class="cls-1" d="m260.07,184.21h-1.39v-1.24h1.39v1.24Z"/>
    <path class="cls-1" d="m255.59,175.05c1.5,0,2.64.26,3.43.79.79.53,1.18,1.31,1.18,2.34s-.39,1.8-1.18,2.32-1.93.78-3.43.78-2.69-.25-3.46-.75c-.77-.5-1.15-1.3-1.15-2.38s.39-1.83,1.16-2.34c.78-.5,1.92-.75,3.45-.75Zm0,1.16c-1.29,0-2.23.15-2.81.45s-.87.79-.87,1.48.29,1.21.86,1.52,1.51.46,2.82.46,2.2-.16,2.79-.47c.59-.31.88-.81.88-1.48s-.3-1.17-.9-1.48c-.6-.31-1.53-.47-2.77-.47Z"/>
    <path class="cls-1" d="m255.59,167.81c1.5,0,2.64.26,3.43.79.79.53,1.18,1.31,1.18,2.34s-.39,1.8-1.18,2.32-1.93.78-3.43.78-2.69-.25-3.46-.75c-.77-.5-1.15-1.3-1.15-2.38s.39-1.83,1.16-2.34c.78-.5,1.92-.75,3.45-.75Zm0,1.16c-1.29,0-2.23.15-2.81.45s-.87.79-.87,1.48.29,1.21.86,1.52,1.51.46,2.82.46,2.2-.16,2.79-.47c.59-.31.88-.81.88-1.48s-.3-1.17-.9-1.48c-.6-.31-1.53-.47-2.77-.47Z"/>
    <g>
      <path class="cls-1" d="m806.95,57.04c0,.83-.26,1.47-.79,1.93s-1.28.69-2.26.69-1.71-.23-2.25-.68c-.54-.45-.81-1.1-.81-1.93,0-.58.17-1.08.5-1.48.33-.4.76-.64,1.28-.72v-.03c-.49-.11-.87-.36-1.15-.74-.28-.38-.42-.83-.42-1.34,0-.68.26-1.24.77-1.66s1.2-.64,2.06-.64,1.58.21,2.09.62c.51.42.77.98.77,1.68,0,.51-.14.96-.43,1.34-.28.38-.67.62-1.16.72v.03c.57.09,1.02.34,1.33.73.32.39.48.88.48,1.47Zm-1.19-.11c0-.56-.17-.97-.5-1.26-.33-.28-.79-.42-1.39-.42s-1.03.15-1.36.46c-.33.3-.49.72-.49,1.25,0,1.23.63,1.85,1.89,1.85.62,0,1.09-.15,1.39-.45.31-.3.46-.77.46-1.43Zm-.22-4.11c0-1.01-.55-1.52-1.67-1.52-.54,0-.95.13-1.23.38-.28.25-.42.63-.42,1.14s.15.9.44,1.17.7.4,1.23.4.95-.12,1.23-.37c.28-.25.42-.65.42-1.21Z"/>
      <path class="cls-1" d="m812.61,59.54l-1.85-2.82-1.86,2.82h-1.23l2.45-3.54-2.33-3.34h1.26l1.72,2.68,1.7-2.68h1.28l-2.33,3.33,2.48,3.55h-1.28Z"/>
      <path class="cls-1" d="m820.7,57.06c0,.83-.26,1.47-.79,1.92-.53.45-1.28.68-2.25.68-.91,0-1.63-.2-2.17-.61s-.86-1.01-.96-1.82l1.18-.11c.15,1.06.8,1.59,1.95,1.59.58,0,1.03-.14,1.36-.43s.49-.71.49-1.26c0-.49-.19-.87-.56-1.14-.38-.27-.92-.41-1.62-.41h-.65v-.99h.62c.63,0,1.11-.14,1.46-.41s.52-.65.52-1.13-.14-.86-.42-1.13c-.28-.28-.7-.42-1.26-.42-.5,0-.91.13-1.22.39-.31.26-.49.62-.54,1.09l-1.15-.09c.08-.73.39-1.31.91-1.72s1.2-.62,2.02-.62c.9,0,1.6.21,2.09.63s.75,1,.75,1.75c0,.57-.16,1.04-.48,1.4-.32.36-.79.6-1.4.73v.03c.67.07,1.19.3,1.56.67.37.38.56.85.56,1.42Z"/>
      <path class="cls-1" d="m822.46,59.54v-1.39h1.24v1.39h-1.24Z"/>
      <path class="cls-1" d="m825.54,59.54v-.81c.22-.5.48-.93.79-1.31s.64-.72.98-1.03c.34-.31.68-.59,1.02-.85s.64-.53.91-.79c.27-.26.49-.54.66-.83.17-.29.25-.61.25-.98,0-.49-.14-.87-.43-1.14s-.69-.41-1.2-.41-.89.13-1.21.4-.5.64-.56,1.12l-1.17-.11c.08-.72.39-1.29.91-1.71s1.2-.64,2.02-.64c.9,0,1.6.21,2.08.64s.73,1.03.73,1.82c0,.35-.08.69-.24,1.04-.16.34-.4.69-.71,1.03-.31.34-.91.88-1.8,1.6-.49.4-.88.76-1.16,1.08-.29.32-.5.63-.62.92h4.67v.97h-5.93Z"/>
    </g>
  </g>
</svg>